<svg width="1379" height="1250" viewBox="0 0 1379 1250" fill="none" xmlns="http://www.w3.org/2000/svg">
<path d="M1377.78 28.8646V1220.97C1377.78 1236.47 1360.04 1249.03 1338.17 1249.03H40.969C19.093 1249.03 1.35706 1236.47 1.35706 1220.97V28.8646C1.35706 13.3622 19.093 0.79653 40.969 0.79653H1338.17C1360.04 0.79653 1377.78 13.3622 1377.78 28.8646Z" fill="white"/>
<path d="M1377.78 111.396H1.35706V28.3312C1.35706 13.1235 18.7549 0.797413 40.2148 0.797413H1341.58C1361.58 0.797413 1377.78 12.2796 1377.78 26.4408V111.396Z" fill="#D7E1F5"/>
<path d="M1377.78 28.8654C1377.78 28.8654 1377.66 27.9037 1377.51 26.0133C1377.09 24.1487 1376.58 21.3003 1374.46 17.8549C1372.34 14.4501 1368.69 10.3967 1362.54 6.95863C1356.47 3.51692 1347.64 0.90065 1337.31 0.992773C1295.93 1.03331 1234.95 1.09217 1156.42 1.17324C999.312 1.24325 772.007 1.34655 491.145 1.47552C420.924 1.49394 347.359 1.51602 270.704 1.53813C232.377 1.54919 193.28 1.55659 153.439 1.56764C133.519 1.57133 113.416 1.57503 93.1318 1.5824C82.9896 1.5824 72.8005 1.58599 62.5698 1.58599C57.4519 1.58599 52.3235 1.58977 47.1848 1.58977C46.6491 1.58977 46.1134 1.58977 45.5777 1.58977C40.9591 1.5824 36.4548 1.57497 32.0859 2.35248C22.3129 3.95911 13.5282 8.45836 8.24901 14.5716C5.59123 17.6154 3.79686 21.0423 3.01149 24.5909C2.22611 28.11 2.57459 31.8613 2.49658 35.5793C2.50178 50.4516 2.50693 65.4456 2.51213 80.5574C2.52253 110.788 2.53297 141.495 2.54337 172.654C2.56417 234.977 2.58497 299.117 2.60057 364.893C2.63698 627.996 2.67337 917.247 2.70978 1220.86C2.74099 1225.45 4.36374 1230.01 7.45322 1234.03C10.6571 1238 15.0989 1241.52 20.6226 1243.89C26.0734 1246.34 32.3928 1247.79 38.837 1248C43.0395 1248.1 47.3565 1248.09 51.6735 1248.07C54.0348 1248.07 56.4012 1248.06 58.747 1248.07C85.3768 1248.07 111.924 1248.07 138.382 1248.07C191.303 1248.08 243.871 1248.08 296.055 1248.08C400.431 1248.08 503.274 1248.09 604.327 1248.09C806.428 1248.11 1001.38 1248.13 1187.08 1248.15C1233.51 1248.16 1279.36 1248.16 1324.6 1248.17C1326.58 1248.15 1328.59 1248.16 1330.6 1248.17C1334.26 1248.19 1337.92 1248.2 1341.43 1248.05C1346.87 1247.74 1352.22 1246.6 1356.94 1244.68C1366.45 1240.91 1373.47 1234.19 1375.71 1226.68C1376.95 1222.97 1376.48 1219.03 1376.58 1215.07C1376.58 1211.13 1376.58 1207.2 1376.58 1203.28C1376.59 1195.43 1376.59 1187.61 1376.59 1179.82C1376.61 1117.49 1376.63 1056.98 1376.66 998.481C1376.72 881.474 1376.78 772.485 1376.82 672.988C1377 473.999 1377.16 312.976 1377.25 201.681C1377.37 146.049 1377.45 102.851 1377.51 73.5413C1377.57 58.9085 1377.61 47.7396 1377.64 40.2187C1377.69 32.7125 1377.78 28.8654 1377.78 28.8654C1377.78 28.8654 1377.87 32.7125 1377.92 40.2187C1377.95 47.7396 1378 58.9085 1378.05 73.5413C1378.11 102.851 1378.2 146.049 1378.31 201.681C1378.41 312.976 1378.56 473.999 1378.74 672.988C1378.79 772.485 1378.85 881.474 1378.9 998.481C1378.93 1056.98 1378.95 1117.49 1378.98 1179.82C1378.98 1187.61 1378.98 1195.43 1378.98 1203.28C1378.98 1207.2 1378.98 1211.13 1378.99 1215.07C1378.89 1218.96 1379.39 1223.01 1378.07 1227.04C1375.69 1235.03 1368.24 1242.16 1358.13 1246.18C1353.1 1248.22 1347.42 1249.44 1341.63 1249.77C1337.87 1249.93 1334.25 1249.91 1330.62 1249.9C1328.62 1249.89 1326.62 1249.88 1324.6 1249.9C1279.36 1249.91 1233.51 1249.91 1187.08 1249.92C1001.38 1249.94 806.428 1249.95 604.327 1249.97C503.274 1249.98 400.431 1249.98 296.055 1249.99C243.871 1249.99 191.303 1249.99 138.382 1249.99C111.924 1249.99 85.3768 1249.99 58.747 1250C56.3648 1249.98 54.0035 1249.99 51.637 1249.99C47.3565 1250.01 43.0759 1250.02 38.6861 1249.91C31.7894 1249.7 25.0175 1248.13 19.1818 1245.52C13.2681 1242.97 8.50389 1239.21 5.08153 1234.96C1.7684 1230.66 0.0260057 1225.76 0 1220.86C0.036408 917.247 0.0727958 627.996 0.109204 364.893C0.124807 299.117 0.145604 234.977 0.166409 172.654C0.176811 141.495 0.187244 110.788 0.197646 80.5574C0.202847 65.4456 0.208064 50.4516 0.213265 35.5793C0.301684 31.8723 -0.0676302 28.1542 0.764554 24.3403C1.59674 20.5817 3.50559 16.9521 6.31941 13.7278C11.921 7.26074 21.2155 2.50349 31.5657 0.804749C36.1948 -0.0169872 40.9694 -0.00581731 45.5464 0.00155252C46.0978 0.00523743 46.6439 0.00515107 47.1848 0.00515107C52.3235 0.00883598 57.4519 0.00892955 62.5698 0.00892955C72.8005 0.0126145 82.9896 0.0126217 93.1318 0.0163066C113.416 0.0199915 133.519 0.0235972 153.439 0.0272821C193.28 0.0383369 232.377 0.0494204 270.704 0.0567902C347.359 0.0788997 420.924 0.10098 491.145 0.119405C772.007 0.248377 999.312 0.351583 1156.42 0.425282C1234.95 0.502665 1295.93 0.56153 1337.31 0.605749C1347.76 0.543105 1356.69 3.22576 1362.81 6.72643C1368.99 10.2308 1372.62 14.3358 1374.71 17.7738C1376.8 21.2597 1377.27 24.1303 1377.65 26.0022C1377.76 27.9037 1377.78 28.8654 1377.78 28.8654Z" fill="#17282F"/>
<path d="M315.71 552.689L268.384 526.777L281.148 515.078L312.885 532.452L358.016 495.658L373.77 505.357L315.71 552.689Z" fill="white"/>
<path d="M1156 378C1156 379.657 1154.66 381 1153 381H492C490.343 381 489 379.657 489 378V306C489 304.343 490.343 303 492 303H1153C1154.66 303 1156 304.343 1156 306V378Z" fill="#DADBD8"/>
<path d="M382.518 397.428H253.753C242.654 397.428 233.661 391.053 233.661 383.193V291.966C233.661 284.102 242.654 277.731 253.753 277.731H382.518C393.612 277.731 402.605 284.102 402.605 291.966V383.193C402.605 391.053 393.612 397.428 382.518 397.428Z" fill="#DADBD8"/>
<path d="M382.518 778.865H253.753C242.654 778.865 233.661 772.494 233.661 764.63V673.403C233.661 665.543 242.654 659.172 253.753 659.172H382.518C393.612 659.172 402.605 665.543 402.605 673.403V764.63C402.605 772.494 393.612 778.865 382.518 778.865Z" fill="#DADBD8"/>
<path d="M386.809 595.047H258.045C246.945 595.047 237.953 588.676 237.953 580.812V489.585C237.953 481.725 246.945 475.354 258.045 475.354H386.809C397.904 475.354 406.896 481.725 406.896 489.585V580.812C406.896 588.676 397.904 595.047 386.809 595.047Z" fill="#DADBD8"/>
<path d="M382.518 971.84H253.753C242.654 971.84 233.661 965.469 233.661 957.605V866.378C233.661 858.518 242.654 852.143 253.753 852.143H382.518C393.612 852.143 402.605 858.518 402.605 866.378V957.605C402.605 965.469 393.612 971.84 382.518 971.84Z" fill="#DADBD8"/>
<path d="M382.518 1154.18H253.753C242.654 1154.18 233.661 1147.8 233.661 1139.94V1048.71C233.661 1040.85 242.654 1034.48 253.753 1034.48H382.518C393.612 1034.48 402.605 1040.85 402.605 1048.71V1139.94C402.605 1147.8 393.612 1154.18 382.518 1154.18Z" fill="#DADBD8"/>
<path d="M105.572 53.1341C105.572 62.8254 94.4837 70.6816 80.8047 70.6816C67.1257 70.6816 56.0367 62.8254 56.0367 53.1341C56.0367 43.4428 67.1257 35.5865 80.8047 35.5865C94.4837 35.5865 105.572 43.4428 105.572 53.1341Z" fill="white"/>
<path d="M172.444 53.1341C172.444 62.8254 161.355 70.6816 147.676 70.6816C133.997 70.6816 122.909 62.8254 122.909 53.1341C122.909 43.4428 133.997 35.5865 147.676 35.5865C161.355 35.5865 172.444 43.4428 172.444 53.1341Z" fill="white"/>
<path d="M239.315 53.1341C239.315 62.8254 228.226 70.6816 214.547 70.6816C200.868 70.6816 189.779 62.8254 189.779 53.1341C189.779 43.4428 200.868 35.5865 214.547 35.5865C228.226 35.5865 239.315 43.4428 239.315 53.1341Z" fill="white"/>
<path d="M1378.89 966.824H1376.68C1376.71 896.453 1376.74 829.093 1376.78 765.101H1378.79C1378.82 829.093 1378.85 896.453 1378.89 966.824Z" fill="#0F191D"/>
</svg>
