<svg width="135" height="92" viewBox="0 0 135 92" fill="none" xmlns="http://www.w3.org/2000/svg">
<g opacity="0.5">
<path d="M9.37645 91.6816L0.457031 66.6757L11.9998 56.8248L41.9076 51.1415V62.887L50.3024 68.9489V74.2534L42.9569 78.7998L46.6296 87.893L55.5496 80.6941L66.5682 71.4117H79.1603L83.3582 60.6135L104.87 58.3403L124.809 51.1415L131.629 60.2346L125.858 71.4117L134.518 82.9673L127.957 91.6816H9.37645Z" fill="#0E2332"/>
<path d="M55.3357 0.173263L31.52 35.2987L43.1847 32.6489L55.0602 59.2461L71.1919 55.5815L61.2381 33.2884L77.3693 29.6239L87.3236 51.917L103.455 48.2524L91.5793 21.6553L103.244 19.0055L55.3357 0.173263Z" fill="#0E2332"/>
<path d="M25.9304 39.5541L21.7109 45.8996L34.8957 47.6621L38.0599 39.5541H25.9304Z" fill="#0E2332"/>
<path d="M12.9912 43.0329L15.1709 48.8241L8.08617 51.1406L2.0918 47.2798L2.63672 41.8743L12.9912 43.0329Z" fill="#0E2332"/>
<path d="M112.175 43.0909L111.63 47.5501L118.169 49.9824L124.709 46.334L121.439 41.8744L112.175 43.0909Z" fill="#0E2332"/>
</g>
</svg>
