<svg width="118" height="84" viewBox="0 0 118 84" fill="none" xmlns="http://www.w3.org/2000/svg">
<path opacity="0.5" d="M53.4836 22.5953H45.3968C43.0652 22.5953 41.1756 23.9341 41.1756 25.586V31.283C41.1756 32.9349 43.0652 34.2736 45.3968 34.2736C47.7284 34.2736 49.618 32.9349 49.618 31.283V28.5767H53.4836C55.8152 28.5767 57.7049 27.2379 57.7049 25.586C57.7049 23.9341 55.8152 22.5953 53.4836 22.5953ZM87.8223 31.0203C90.1539 31.0203 92.0436 29.6815 92.0436 28.0296V25.3233H95.9041C98.2357 25.3233 100.13 23.9845 100.13 22.3326C100.13 20.6807 98.2357 19.342 95.9041 19.342H87.8223C85.4907 19.342 83.5961 20.6807 83.5961 22.3326V28.0296C83.5961 29.6815 85.4907 31.0203 87.8223 31.0203ZM53.4836 9.08523H45.3968C43.0652 9.08523 41.1756 10.424 41.1756 12.0759V17.7729C41.1756 19.4247 43.0652 20.7635 45.3968 20.7635C47.7284 20.7635 49.618 19.4247 49.618 17.7729V15.0665H53.4836C55.8152 15.0665 57.7049 13.7277 57.7049 12.0759C57.7049 10.424 55.8152 9.08523 53.4836 9.08523ZM105.535 77.4096H71.5165C71.5267 77.3161 71.5572 77.2261 71.5572 77.1289V65.8537H72.2277C74.5593 65.8537 76.4489 64.5149 76.4489 62.8594C76.4489 61.2075 74.5593 59.8688 72.2277 59.8688H71.5572V52.3436H72.2277C74.5593 52.3436 76.4489 51.0048 76.4489 49.3529C76.4489 47.701 74.5593 46.3622 72.2277 46.3622H71.5572V38.8334H72.2277C74.5593 38.8334 76.4489 37.4946 76.4489 35.8428C76.4489 34.1909 74.5593 32.8521 72.2277 32.8521H71.5572V25.3233H72.2277C74.5593 25.3233 76.4489 23.9845 76.4489 22.3326C76.4489 20.6807 74.5593 19.342 72.2277 19.342H71.5572V15.0161H105.535V77.4096ZM50.7559 77.4096C50.766 77.3161 50.7914 77.2261 50.7914 77.1289V68.067C50.7914 66.4151 48.9018 65.0763 46.5702 65.0763H29.2688C26.9372 65.0763 25.0475 66.4151 25.0475 68.067V77.1289C25.0475 77.2261 25.0729 77.3161 25.0831 77.4096H12.6887C12.6988 77.3161 12.7293 77.2261 12.7293 77.1289V6.46885H63.1096V77.1289C63.1096 77.2261 63.1402 77.3161 63.1503 77.4096H50.7559ZM33.4494 77.4096C33.4646 77.3161 33.49 77.2261 33.49 77.1289V71.0576H42.349V77.1289C42.349 77.2261 42.3744 77.3161 42.3896 77.4096H33.4494ZM113.983 77.4636V14.703C113.983 11.5756 110.381 9.03124 105.957 9.03124H71.5572V6.15574C71.5572 3.02833 67.9557 0.483944 63.5313 0.483944H12.3077C7.88328 0.483944 4.28178 3.02833 4.28178 6.15574V77.1289C4.28178 77.2369 4.31228 77.334 4.32752 77.4384C2.16357 77.5644 0.456787 78.8348 0.456787 80.4039C0.456787 82.0557 2.34641 83.3945 4.67799 83.3945H113.256C115.588 83.3945 117.483 82.0557 117.483 80.4039C117.483 78.9247 115.969 77.7083 113.983 77.4636ZM87.8223 44.5304C90.1539 44.5304 92.0436 43.1916 92.0436 41.5398V38.8334H95.9041C98.2357 38.8334 100.13 37.4946 100.13 35.8428C100.13 34.1909 98.2357 32.8521 95.9041 32.8521H87.8223C85.4907 32.8521 83.5961 34.1909 83.5961 35.8428V41.5398C83.5961 43.1916 85.4907 44.5304 87.8223 44.5304ZM87.8223 71.5507C90.1539 71.5507 92.0436 70.2083 92.0436 68.5564V65.8537H95.9041C98.2357 65.8537 100.13 64.5149 100.13 62.8594C100.13 61.2075 98.2357 59.8688 95.9041 59.8688H87.8223C85.4907 59.8688 83.5961 61.2075 83.5961 62.8594V68.5564C83.5961 70.2083 85.4907 71.5507 87.8223 71.5507ZM87.8223 58.0405C90.1539 58.0405 92.0436 56.7018 92.0436 55.0463V52.3436H95.9041C98.2357 52.3436 100.13 51.0048 100.13 49.3529C100.13 47.701 98.2357 46.3622 95.9041 46.3622H87.8223C85.4907 46.3622 83.5961 47.701 83.5961 49.3529V55.0463C83.5961 56.7018 85.4907 58.0405 87.8223 58.0405ZM29.8022 36.1055H21.7153C19.3837 36.1055 17.494 37.4442 17.494 39.0961V44.7895C17.494 46.445 19.3837 47.7838 21.7153 47.7838C24.0469 47.7838 25.9365 46.445 25.9365 44.7895V42.0868H29.8022C32.1337 42.0868 34.0234 40.748 34.0234 39.0961C34.0234 37.4442 32.1337 36.1055 29.8022 36.1055ZM29.8022 22.5953H21.7153C19.3837 22.5953 17.494 23.9341 17.494 25.586V31.283C17.494 32.9349 19.3837 34.2736 21.7153 34.2736C24.0469 34.2736 25.9365 32.9349 25.9365 31.283V28.5767H29.8022C32.1337 28.5767 34.0234 27.2379 34.0234 25.586C34.0234 23.9341 32.1337 22.5953 29.8022 22.5953ZM53.4836 36.1055H45.3968C43.0652 36.1055 41.1756 37.4442 41.1756 39.0961V44.7895C41.1756 46.445 43.0652 47.7838 45.3968 47.7838C47.7284 47.7838 49.618 46.445 49.618 44.7895V42.0868H53.4836C55.8152 42.0868 57.7049 40.748 57.7049 39.0961C57.7049 37.4442 55.8152 36.1055 53.4836 36.1055ZM53.4836 49.612H45.3968C43.0652 49.612 41.1756 50.9508 41.1756 52.6026V58.2997C41.1756 59.9515 43.0652 61.2939 45.3968 61.2939C47.7284 61.2939 49.618 59.9515 49.618 58.2997V55.5969H53.4836C55.8152 55.5969 57.7049 54.2581 57.7049 52.6026C57.7049 50.9508 55.8152 49.612 53.4836 49.612ZM29.8022 9.08523H21.7153C19.3837 9.08523 17.494 10.424 17.494 12.0759V17.7729C17.494 19.4247 19.3837 20.7635 21.7153 20.7635C24.0469 20.7635 25.9365 19.4247 25.9365 17.7729V15.0665H29.8022C32.1337 15.0665 34.0234 13.7277 34.0234 12.0759C34.0234 10.424 32.1337 9.08523 29.8022 9.08523ZM29.8022 49.612H21.7153C19.3837 49.612 17.494 50.9508 17.494 52.6026V58.2997C17.494 59.9515 19.3837 61.2939 21.7153 61.2939C24.0469 61.2939 25.9365 59.9515 25.9365 58.2997V55.5969H29.8022C32.1337 55.5969 34.0234 54.2581 34.0234 52.6026C34.0234 50.9508 32.1337 49.612 29.8022 49.612Z" fill="#0E2332"/>
</svg>
