<svg width="90" height="73" viewBox="0 0 90 73" fill="none" xmlns="http://www.w3.org/2000/svg">
<path opacity="0.5" d="M82.0749 59.0466C81.9237 59.137 81.7947 59.2274 81.6836 59.321C81.0789 59.7264 80.154 60.294 79.0202 60.9364L69.6341 54.7525C68.1491 53.7733 65.8103 53.8232 64.4098 54.8679C63.0136 55.9095 63.0848 57.5497 64.5743 58.532L72.9244 64.033C69.2562 65.6795 65.2323 67.0672 62.2133 67.0672H62.2088C60.1858 67.0641 58.7763 66.5121 58.7674 66.5121C58.6785 66.4684 58.5852 66.431 58.4873 66.3936C47.9541 62.4488 35.7179 55.0051 27.3144 47.4336L26.443 46.6446C18.0306 39.0637 10.7431 28.9195 7.88863 20.8023C7.8664 20.7492 7.84417 20.6931 7.82194 20.6432C7.66187 20.2815 7.33726 19.1682 7.7641 18.348C8.88012 16.1838 10.7831 14.1351 12.864 12.3388L19.1333 19.4551C19.8313 20.2471 21.0407 20.6837 22.2812 20.6837C22.9437 20.6837 23.6151 20.559 24.2198 20.297C25.9583 19.5455 26.4963 17.9489 25.4247 16.7296L18.1195 8.44082C20.4983 6.90031 22.3835 5.92423 22.6636 5.78078C23.8597 5.26312 24.5222 5.90863 24.9223 6.29532C27.5412 8.82748 32.9479 14.8242 35.46 18.4541C35.6201 18.6848 35.7001 18.8002 35.1843 19.162C34.0861 19.9322 31.7874 20.612 30.9204 20.8677C30.6091 20.9613 30.3779 21.033 30.2534 21.0735C26.7053 22.3053 21.1652 25.2241 23.913 30.9776C23.9575 31.0681 24.0064 31.1554 24.0642 31.2427C26.4385 34.8382 30.3913 38.6365 34.3129 42.204C34.3307 42.2196 34.3484 42.2383 34.3707 42.2539C34.4062 42.2913 34.4418 42.3256 34.4818 42.363C38.4568 45.8993 42.7341 49.5198 47.1093 52.0114C47.2204 52.0738 47.3361 52.133 47.4561 52.1861C54.7525 55.4448 60.1325 52.3981 62.6846 50.2963C63.3071 49.7849 64.9255 48.3722 65.4368 47.9201C65.4591 47.9013 65.508 47.8577 65.5258 47.839C65.9481 47.4492 66.3617 47.2901 66.424 47.2777C66.4284 47.2777 66.6018 47.3026 66.9353 47.4928C70.888 49.7506 78.8602 54.6153 80.6921 56.2681C80.7899 56.3554 80.8922 56.4396 81.0033 56.5144C82.5106 57.5653 82.8708 58.4167 82.0749 59.0466ZM71.6039 43.4763C69.2696 42.1385 67.042 42.0075 65.5747 42.1291C62.5513 42.3848 60.5504 43.8567 59.6612 44.6862C58.972 45.2912 57.5714 46.5136 57.0601 46.9315C54.499 49.0427 53.0095 48.5157 51.6089 47.8951C47.8829 45.7434 44.028 42.4815 40.4088 39.2571C40.351 39.2041 40.2931 39.151 40.2353 39.098C40.2309 39.0918 40.2264 39.0887 40.222 39.0824C40.1775 39.045 40.133 39.0045 40.0886 38.9671C36.5049 35.7021 32.9256 32.2687 30.8581 29.1908C30.3379 28.0931 29.9644 26.958 33.4903 25.7356L33.7971 25.6451C35.1399 25.246 38.2879 24.3136 40.4088 22.8323C43.0676 20.9706 43.7034 18.4884 42.1116 16.1901C39.3816 12.2515 33.7482 6.0022 30.907 3.25175C27.2966 -0.244002 21.97 -0.122357 18.6308 1.43685C18.5019 1.49299 5.2564 7.98241 0.814567 16.5799C-0.434838 18.9967 0.432196 21.4197 0.734543 22.112C3.83805 30.8685 11.6324 41.7393 20.605 49.8285L21.4809 50.6144C30.4535 58.7036 43.5789 66.6774 54.9392 70.9434C55.7173 71.2614 58.4384 72.25 62.2088 72.25H62.2133C66.7707 72.25 72.3997 70.6378 78.9313 67.4539C79.2159 67.3135 84.6893 64.6379 87.0947 62.7856L87.1436 62.823C87.4193 62.6453 89.8158 61.005 89.8781 58.398C89.9092 57.0757 89.3223 55.0644 86.3788 52.9532C83.0886 50.103 71.7195 43.5418 71.6039 43.4763Z" fill="#0E2332"/>
</svg>
