<svg width="90" height="73" viewBox="0 0 90 73" fill="none" xmlns="http://www.w3.org/2000/svg">
<path opacity="0.5" d="M82.0749 59.5075C81.9237 59.598 81.7947 59.6884 81.6836 59.7819C81.0789 60.1873 80.154 60.7549 79.0202 61.3973L69.6341 55.2134C68.1491 54.2343 65.8103 54.2842 64.4098 55.3288C63.0136 56.3704 63.0848 58.0107 64.5743 58.993L72.9244 64.4939C69.2562 66.1404 65.2323 67.5281 62.2133 67.5281H62.2088C60.1858 67.525 58.7763 66.973 58.7674 66.973C58.6785 66.9294 58.5852 66.892 58.4873 66.8545C47.9541 62.9097 35.7179 55.4661 27.3144 47.8945L26.443 47.1055C18.0306 39.5247 10.7431 29.3805 7.88863 21.2632C7.8664 21.2102 7.84417 21.1541 7.82194 21.1042C7.66187 20.7424 7.33726 19.6291 7.7641 18.809C8.88012 16.6448 10.7831 14.596 12.864 12.7998L19.1333 19.916C19.8313 20.7081 21.0407 21.1447 22.2812 21.1447C22.9437 21.1447 23.6151 21.0199 24.2198 20.758C25.9583 20.0064 26.4963 18.4099 25.4247 17.1905L18.1195 8.90175C20.4983 7.36125 22.3835 6.38517 22.6636 6.24172C23.8597 5.72406 24.5222 6.36957 24.9223 6.75625C27.5412 9.28841 32.9479 15.2852 35.46 18.915C35.6201 19.1458 35.7001 19.2612 35.1843 19.6229C34.0861 20.3932 31.7874 21.073 30.9204 21.3287C30.6091 21.4222 30.3779 21.4939 30.2534 21.5345C26.7053 22.7663 21.1652 25.6851 23.913 31.4386C23.9575 31.529 24.0064 31.6163 24.0642 31.7036C26.4385 35.2992 30.3913 39.0975 34.3129 42.6649C34.3307 42.6805 34.3484 42.6992 34.3707 42.7148C34.4062 42.7522 34.4418 42.7865 34.4818 42.824C38.4568 46.3602 42.7341 49.9808 47.1093 52.4724C47.2204 52.5347 47.3361 52.594 47.4561 52.647C54.7525 55.9057 60.1325 52.8591 62.6846 50.7572C63.3071 50.2458 64.9255 48.8332 65.4368 48.381C65.4591 48.3623 65.508 48.3186 65.5258 48.2999C65.9481 47.9101 66.3617 47.7511 66.424 47.7386C66.4284 47.7386 66.6018 47.7635 66.9353 47.9538C70.888 50.2115 78.8602 55.0763 80.6921 56.729C80.7899 56.8163 80.8922 56.9005 81.0033 56.9754C82.5106 58.0263 82.8708 58.8776 82.0749 59.5075ZM71.6039 43.9372C69.2696 42.5994 67.042 42.4685 65.5747 42.5901C62.5513 42.8458 60.5504 44.3177 59.6612 45.1472C58.972 45.7522 57.5714 46.9746 57.0601 47.3924C54.499 49.5036 53.0095 48.9766 51.6089 48.3561C47.8829 46.2043 44.028 42.9425 40.4088 39.718C40.351 39.665 40.2931 39.612 40.2353 39.559C40.2309 39.5527 40.2264 39.5496 40.222 39.5434C40.1775 39.5059 40.133 39.4654 40.0886 39.428C36.5049 36.163 32.9256 32.7296 30.8581 29.6518C30.3379 28.5541 29.9644 27.4189 33.4903 26.1965L33.7971 26.1061C35.1399 25.7069 38.2879 24.7745 40.4088 23.2933C43.0676 21.4316 43.7034 18.9493 42.1116 16.651C39.3816 12.7125 33.7482 6.46314 30.907 3.71269C27.2966 0.216935 21.97 0.33858 18.6308 1.89779C18.5019 1.95392 5.2564 8.44335 0.814567 17.0408C-0.434838 19.4576 0.432196 21.8806 0.734543 22.5729C3.83805 31.3295 11.6324 42.2003 20.605 50.2895L21.4809 51.0753C30.4535 59.1645 43.5789 67.1383 54.9392 71.4043C55.7173 71.7224 58.4384 72.7109 62.2088 72.7109H62.2133C66.7707 72.7109 72.3997 71.0987 78.9313 67.9148C79.2159 67.7745 84.6893 65.0989 87.0947 63.2465L87.1436 63.284C87.4193 63.1062 89.8158 61.4659 89.8781 58.8589C89.9092 57.5367 89.3223 55.5253 86.3788 53.4141C83.0886 50.5639 71.7195 44.0027 71.6039 43.9372Z" fill="#0E2332"/>
</svg>
