<svg width="57" height="39" viewBox="0 0 57 39" fill="none" xmlns="http://www.w3.org/2000/svg">
<path d="M18.81 21.8883C22.1588 21.8883 24.8425 23.7424 24.8425 26.0499V31.5895C24.8425 33.8808 22.1588 35.7495 18.81 35.7495H10.7825C7.4575 35.7495 4.75 33.8808 4.75 31.5895V26.0499C4.75 23.7424 7.4575 21.8883 10.7825 21.8883H18.81ZM46.2177 21.8883C49.5427 21.8883 52.2502 23.7424 52.2502 26.0499V31.5895C52.2502 33.8808 49.5427 35.7495 46.2177 35.7495H38.1902C34.8415 35.7495 32.1577 33.8808 32.1577 31.5895V26.0499C32.1577 23.7424 34.8415 21.8883 38.1902 21.8883H46.2177ZM18.81 3.25C22.1588 3.25 24.8425 5.11875 24.8425 7.41162V12.9512C24.8425 15.2587 22.1588 17.1112 18.81 17.1112H10.7825C7.4575 17.1112 4.75 15.2587 4.75 12.9512V7.41162C4.75 5.11875 7.4575 3.25 10.7825 3.25H18.81ZM46.2177 3.25C49.5427 3.25 52.2502 5.11875 52.2502 7.41162V12.9512C52.2502 15.2587 49.5427 17.1112 46.2177 17.1112H38.1902C34.8415 17.1112 32.1577 15.2587 32.1577 12.9512V7.41162C32.1577 5.11875 34.8415 3.25 38.1902 3.25H46.2177Z" fill="black"/>
</svg>
