<svg width="38" height="41" viewBox="0 0 38 41" fill="none" xmlns="http://www.w3.org/2000/svg">
<path opacity="0.4" d="M19.0132 0C8.07126 0 0.142578 9.7316 0.142578 20.5308C0.142578 23.98 1.06539 27.5318 2.68503 30.7757C2.98636 31.3095 3.02402 31.987 2.81686 32.6234L1.55505 37.2223C1.27256 38.331 2.13887 39.1522 3.09936 38.8237L6.90362 37.5919C7.93943 37.2223 8.74925 37.6945 9.71161 38.331C12.4612 40.0966 15.8869 41 18.9756 41C28.3167 41 37.8085 33.1367 37.8085 20.4692C37.8085 9.54682 29.7104 0 19.0132 0Z" fill="black"/>
<path d="M10.2563 17.9236C11.5935 17.9236 12.6669 19.0938 12.6669 20.5515C12.6669 21.9887 11.5935 23.1589 10.2563 23.1795C8.93802 23.1795 7.8457 21.9887 7.8457 20.5515C7.8457 19.0938 8.91918 17.9236 10.2563 17.9236ZM18.9391 17.9236C20.2762 17.9236 21.3497 19.0938 21.3497 20.5515C21.3497 21.9887 20.2762 23.1795 18.9391 23.1795C17.6019 23.1589 16.5285 21.9887 16.5285 20.531C16.5285 19.0938 17.6208 17.903 18.9391 17.9236ZM27.6207 17.9236C28.9578 17.9236 30.0313 19.0938 30.0313 20.5515C30.0313 21.9887 28.9578 23.1795 27.6207 23.1795C26.2836 23.1795 25.2101 21.9887 25.2101 20.5515C25.2101 19.0938 26.2836 17.9236 27.6207 17.9236Z" fill="black"/>
</svg>
