<svg width="540" height="293" viewBox="0 0 540 293" fill="none" xmlns="http://www.w3.org/2000/svg">
<g clip-path="url(#clip0_63_588)">
<g clip-path="url(#clip1_63_588)">
<path opacity="0.1" d="M-356.391 176.166L-389.55 287.632C-390.694 291.479 -387.812 295.343 -383.799 295.343H2590.5C2593.81 295.343 2596.5 292.657 2596.5 289.343V27.5166C2596.5 26.043 2595.96 24.6209 2594.98 23.5215L2560.85 -14.721C2558.02 -17.8907 2552.88 -17.1974 2551 -13.3912L2516.42 56.3516C2514.81 59.6007 2510.7 60.6891 2507.69 58.6657L2478.13 38.7905C2474.91 36.6251 2470.51 38.041 2469.16 41.6786L2434.45 135.013C2432.73 139.657 2426.43 140.325 2423.77 136.147L2392.95 87.7964C2390.81 84.4427 2386.06 84.0592 2383.41 87.0266L2352.4 121.773C2349.75 124.741 2345 124.357 2342.87 121.004L2308.87 67.6701C2307.06 64.8275 2303.26 64.0352 2300.46 65.916L2268.93 87.1133C2266.2 88.9494 2262.5 88.243 2260.64 85.5298L2228.36 38.5178C2225.74 34.6957 2219.96 35.1665 2217.99 39.3627L2183.85 112.04C2182.29 115.369 2178.12 116.521 2175.07 114.469L2144.72 94.0666C2141.81 92.1082 2137.85 93.0576 2136.14 96.1232L2100.43 160.142C2098.91 162.859 2095.57 163.967 2092.73 162.695L2060.76 148.362C2058.11 147.176 2055 148.051 2053.35 150.441L2020.26 198.652C2017.7 202.377 2012.1 202.046 2010 198.045L1976.64 134.507C1974.83 131.045 1970.24 130.218 1967.33 132.828L1935.98 160.929C1933.51 163.144 1929.71 162.933 1927.5 160.456L1894.18 123.13C1891.88 120.55 1887.88 120.445 1885.45 122.9L1853.99 154.623C1851.18 157.458 1846.43 156.807 1844.49 153.321L1809.74 91.0213C1808.12 88.1235 1804.46 87.0878 1801.57 88.7096L1770.03 106.38C1767.32 107.896 1763.91 107.099 1762.15 104.541L1727.79 54.4907C1725.66 51.3881 1721.23 50.9895 1718.58 53.6618L1686.39 86.132C1684.04 88.499 1680.21 88.499 1677.86 86.132L1646.61 54.6081C1643.67 51.6484 1638.69 52.5093 1636.91 56.282L1603.45 127.523C1601.48 131.719 1595.7 132.19 1593.07 128.368L1560.54 80.9732C1558.78 78.4153 1555.37 77.6181 1552.66 79.1346L1521.12 96.8046C1518.22 98.4265 1514.56 97.3908 1512.95 94.4929L1478.2 32.1936C1476.25 28.7068 1471.51 28.0566 1468.7 30.8916L1437.24 62.6143C1434.81 65.0694 1430.81 64.9642 1428.5 62.3846L1395.19 25.0578C1392.98 22.5817 1389.18 22.3699 1386.71 24.5852L1355.36 52.6863C1352.45 55.2958 1347.86 54.4689 1346.04 51.0074L1312.69 -12.5307C1310.59 -16.5314 1304.99 -16.8627 1302.43 -13.1376L1269.33 35.0733C1267.69 37.4632 1264.58 38.3384 1261.93 37.1527L1229.95 22.8197C1227.12 21.5475 1223.78 22.6556 1222.26 25.3722L1186.55 89.3911C1184.84 92.4566 1180.88 93.4061 1177.96 91.4476L1147.62 71.0454C1144.57 68.9935 1140.4 70.1451 1138.84 73.4738L1104.7 146.152C1102.73 150.348 1096.95 150.819 1094.32 146.996L1062.05 99.9845C1060.19 97.2713 1056.49 96.5648 1053.76 98.401L1022.23 119.598C1019.43 121.479 1015.63 120.687 1013.82 117.844L979.822 64.5107C977.684 61.157 972.934 60.7735 970.286 63.7408L939.276 98.4877C936.628 101.455 931.878 101.072 929.74 97.7178L898.918 49.3669C896.255 45.1888 889.962 45.8568 888.235 50.5008L853.528 143.836C852.176 147.473 847.778 148.889 844.557 146.724L814.994 126.849C811.985 124.825 807.882 125.914 806.271 129.163L771.693 198.905C769.805 202.712 764.669 203.405 761.84 200.235L730.664 165.302C728.278 162.628 724.097 162.628 721.711 165.302L690.074 200.752C687.374 203.777 682.514 203.309 680.441 199.824L647.024 143.658C645.018 140.287 640.37 139.716 637.607 142.502L604.131 176.261C602.52 177.885 600.127 178.453 597.958 177.724L561.838 165.582C560.604 165.167 559.539 164.363 558.803 163.29L522.478 110.376C520.348 107.274 515.921 106.875 513.271 109.547L480.305 142.793C478.278 144.836 475.085 145.153 472.697 143.547L439.998 121.563C437.34 119.777 433.747 120.392 431.836 122.962L397.102 169.666C395.19 172.236 391.598 172.852 388.94 171.065L356.241 149.081C353.852 147.475 350.66 147.792 348.633 149.836L315.667 183.081C313.017 185.753 308.59 185.355 306.46 182.252L270.135 129.338C269.398 128.266 268.333 127.462 267.1 127.047L230.979 114.905C228.811 114.176 226.417 114.743 224.807 116.367L192.583 148.864C189.474 151.999 184.157 150.815 182.672 146.656L149.344 53.2947C147.525 48.198 140.419 47.9249 138.214 52.8669L106.53 123.872C104.756 127.847 99.4723 128.67 96.5739 125.422L67.0971 92.3932C64.2684 89.2236 59.1321 89.9169 57.245 93.7231L22.6663 163.466C21.0554 166.715 16.9527 167.803 13.9431 165.78L-15.3748 146.069C-18.6713 143.853 -23.1727 145.394 -24.4193 149.166L-59.0627 253.975C-60.7246 259.003 -67.6105 259.57 -70.072 254.881L-101.038 195.894C-102.985 192.185 -108.038 191.563 -110.827 194.688L-141.349 228.888C-143.997 231.855 -148.747 231.472 -150.885 228.118L-184.883 174.784C-186.695 171.942 -190.492 171.149 -193.29 173.03L-224.819 194.228C-227.55 196.064 -231.25 195.357 -233.113 192.644L-266.767 143.622C-269.036 140.316 -273.847 140.123 -276.373 143.237L-309.97 184.648C-311.683 186.759 -314.602 187.455 -317.083 186.342L-348.186 172.402C-351.497 170.918 -355.356 172.689 -356.391 176.166Z" fill="#3C64B1"/>
<path d="M-391.844 295.343L-356.391 176.166C-355.356 172.689 -351.497 170.918 -348.186 172.402L-317.083 186.342C-314.602 187.455 -311.683 186.759 -309.97 184.648L-276.373 143.237C-273.847 140.123 -269.036 140.316 -266.767 143.622L-233.113 192.644C-231.25 195.357 -227.55 196.064 -224.819 194.228L-193.29 173.03C-190.492 171.149 -186.695 171.942 -184.883 174.784L-150.885 228.118C-148.747 231.472 -143.997 231.855 -141.349 228.888L-110.827 194.688C-108.038 191.563 -102.985 192.185 -101.038 195.894L-70.072 254.881C-67.6105 259.57 -60.7246 259.003 -59.0627 253.975L-24.4193 149.166C-23.1727 145.394 -18.6713 143.853 -15.3748 146.069L13.9431 165.78C16.9527 167.803 21.0554 166.715 22.6663 163.466L57.245 93.7231C59.1321 89.9169 64.2684 89.2236 67.0971 92.3932L96.5739 125.422C99.4723 128.67 104.756 127.847 106.53 123.872L138.214 52.8669C140.419 47.9249 147.525 48.198 149.344 53.2947L182.672 146.656C184.157 150.815 189.474 151.999 192.583 148.864L224.807 116.367C226.417 114.743 228.811 114.176 230.979 114.905L267.1 127.047C268.333 127.462 269.398 128.266 270.135 129.338L306.46 182.252C308.59 185.355 313.017 185.753 315.667 183.081L348.633 149.836C350.66 147.792 353.852 147.475 356.241 149.081L388.94 171.065C391.598 172.852 395.19 172.236 397.102 169.666L431.836 122.962C433.747 120.392 437.34 119.777 439.998 121.563L472.697 143.547C475.085 145.153 478.278 144.836 480.305 142.793L513.271 109.547C515.921 106.875 520.348 107.274 522.478 110.376L558.803 163.29C559.539 164.363 560.604 165.167 561.838 165.582L597.958 177.724C600.127 178.453 602.52 177.885 604.131 176.261L637.607 142.502C640.369 139.716 645.018 140.287 647.024 143.658L680.441 199.824C682.514 203.309 687.374 203.777 690.074 200.752L721.711 165.302C724.097 162.628 728.278 162.628 730.664 165.302L761.84 200.235C764.669 203.405 769.805 202.712 771.692 198.905L806.271 129.163C807.882 125.914 811.985 124.825 814.994 126.849L844.557 146.724C847.778 148.889 852.176 147.473 853.528 143.836L888.235 50.5008C889.962 45.8568 896.255 45.1888 898.918 49.3668L929.74 97.7179C931.878 101.072 936.628 101.455 939.276 98.4877L970.286 63.7408C972.934 60.7735 977.684 61.157 979.822 64.5107L1013.82 117.844C1015.63 120.687 1019.43 121.479 1022.23 119.598L1053.76 98.401C1056.49 96.5648 1060.19 97.2713 1062.05 99.9845L1094.32 146.996C1096.95 150.819 1102.73 150.348 1104.7 146.152L1138.84 73.4738C1140.4 70.1451 1144.57 68.9935 1147.62 71.0454L1177.96 91.4476C1180.88 93.4061 1184.84 92.4566 1186.55 89.3911L1222.26 25.3722C1223.78 22.6556 1227.12 21.5475 1229.95 22.8197L1261.93 37.1527C1264.58 38.3384 1267.69 37.4632 1269.33 35.0733L1302.43 -13.1376C1304.99 -16.8627 1310.59 -16.5314 1312.69 -12.5307L1346.04 51.0074C1347.86 54.4689 1352.45 55.2958 1355.36 52.6863L1386.71 24.5852C1389.18 22.3699 1392.98 22.5817 1395.19 25.0578L1428.5 62.3846C1430.81 64.9642 1434.81 65.0694 1437.24 62.6143L1468.7 30.8916C1471.51 28.0566 1476.25 28.7068 1478.2 32.1936L1512.95 94.4929C1514.56 97.3908 1518.22 98.4265 1521.12 96.8047L1552.66 79.1346C1555.37 77.6181 1558.78 78.4153 1560.54 80.9732L1593.07 128.368C1595.7 132.19 1601.48 131.719 1603.45 127.523L1636.91 56.282C1638.69 52.5093 1643.67 51.6484 1646.61 54.6081L1677.86 86.132C1680.21 88.4991 1684.04 88.499 1686.39 86.132L1718.58 53.6617C1721.23 50.9895 1725.66 51.3881 1727.79 54.4907L1762.15 104.541C1763.91 107.099 1767.32 107.896 1770.03 106.38L1801.57 88.7096C1804.46 87.0878 1808.12 88.1235 1809.74 91.0213L1844.49 153.321C1846.43 156.808 1851.18 157.458 1853.99 154.623L1885.45 122.9C1887.88 120.445 1891.88 120.55 1894.18 123.13L1927.5 160.456C1929.71 162.933 1933.51 163.144 1935.98 160.929L1967.33 132.828C1970.24 130.218 1974.83 131.045 1976.64 134.507L2010 198.045C2012.1 202.046 2017.7 202.377 2020.26 198.652L2053.35 150.441C2055 148.051 2058.11 147.176 2060.76 148.362L2092.73 162.695C2095.57 163.967 2098.91 162.859 2100.43 160.142L2136.14 96.1232C2137.85 93.0576 2141.81 92.1082 2144.72 94.0666L2175.07 114.469C2178.12 116.521 2182.29 115.369 2183.85 112.04L2217.99 39.3627C2219.96 35.1665 2225.74 34.6957 2228.36 38.5178L2260.64 85.5298C2262.5 88.243 2266.2 88.9494 2268.93 87.1133L2300.46 65.916C2303.26 64.0352 2307.06 64.8275 2308.87 67.6701L2342.87 121.004C2345 124.357 2349.75 124.741 2352.4 121.773L2383.41 87.0265C2386.06 84.0592 2390.81 84.4427 2392.95 87.7964L2423.77 136.147C2426.43 140.325 2432.73 139.657 2434.45 135.013L2469.16 41.6786C2470.51 38.041 2474.91 36.6251 2478.13 38.7905L2507.69 58.6657C2510.7 60.6891 2514.81 59.6007 2516.42 56.3516L2551 -13.3912C2552.88 -17.1974 2558.02 -17.8907 2560.85 -14.721L2596.5 25.2286" stroke="#3C64B1"/>
</g>
</g>
<defs>
<clipPath id="clip0_63_588">
<rect width="540" height="293" fill="white"/>
</clipPath>
<clipPath id="clip1_63_588">
<rect width="1064" height="326" fill="white" transform="translate(-396 -26)"/>
</clipPath>
</defs>
</svg>
