<svg width="1149" height="312" viewBox="0 0 1149 312" fill="none" xmlns="http://www.w3.org/2000/svg">
<path d="M6.90332 167.829L133.106 297.303L259.308 45.3533L385.51 9.66043L511.713 216.119L637.915 199.322L764.117 7.56085L890.32 303.952L1016.52 132.836L1142.72 290.654" stroke="#C2A9ED"/>
<path d="M6.90318 174.39C10.0501 174.39 12.6013 171.453 12.6013 167.829C12.6013 164.205 10.0501 161.268 6.90318 161.268C3.7562 161.268 1.20508 164.205 1.20508 167.829C1.20508 171.453 3.7562 174.39 6.90318 174.39Z" fill="white" stroke="#C2A9ED"/>
<path d="M133.105 303.865C136.252 303.865 138.803 300.927 138.803 297.303C138.803 293.68 136.252 290.742 133.105 290.742C129.958 290.742 127.407 293.68 127.407 297.303C127.407 300.927 129.958 303.865 133.105 303.865Z" fill="white" stroke="#C2A9ED"/>
<path d="M259.307 51.9145C262.454 51.9145 265.006 48.977 265.006 45.3534C265.006 41.7297 262.454 38.7922 259.307 38.7922C256.161 38.7922 253.609 41.7297 253.609 45.3534C253.609 48.977 256.161 51.9145 259.307 51.9145Z" fill="white" stroke="#C2A9ED"/>
<path d="M385.511 16.2217C388.658 16.2217 391.209 13.2841 391.209 9.66049C391.209 6.03685 388.658 3.0993 385.511 3.0993C382.364 3.0993 379.812 6.03685 379.812 9.66049C379.812 13.2841 382.364 16.2217 385.511 16.2217Z" fill="white" stroke="#C2A9ED"/>
<path d="M511.713 222.68C514.86 222.68 517.411 219.743 517.411 216.119C517.411 212.496 514.86 209.558 511.713 209.558C508.566 209.558 506.015 212.496 506.015 216.119C506.015 219.743 508.566 222.68 511.713 222.68Z" fill="white" stroke="#C2A9ED"/>
<path d="M637.915 205.884C641.062 205.884 643.613 202.946 643.613 199.323C643.613 195.699 641.062 192.761 637.915 192.761C634.768 192.761 632.217 195.699 632.217 199.323C632.217 202.946 634.768 205.884 637.915 205.884Z" fill="white" stroke="#C2A9ED"/>
<path d="M764.117 14.1224C767.264 14.1224 769.815 11.1848 769.815 7.56119C769.815 3.93754 767.264 1 764.117 1C760.97 1 758.419 3.93754 758.419 7.56119C758.419 11.1848 760.97 14.1224 764.117 14.1224Z" fill="white" stroke="#C2A9ED"/>
<path d="M890.319 310.513C893.466 310.513 896.017 307.575 896.017 303.952C896.017 300.328 893.466 297.391 890.319 297.391C887.172 297.391 884.621 300.328 884.621 303.952C884.621 307.575 887.172 310.513 890.319 310.513Z" fill="white" stroke="#C2A9ED"/>
<path d="M1016.52 139.397C1019.67 139.397 1022.22 136.46 1022.22 132.836C1022.22 129.213 1019.67 126.275 1016.52 126.275C1013.38 126.275 1010.82 129.213 1010.82 132.836C1010.82 136.46 1013.38 139.397 1016.52 139.397Z" fill="white" stroke="#C2A9ED"/>
<path d="M1142.72 297.216C1145.87 297.216 1148.42 294.278 1148.42 290.655C1148.42 287.031 1145.87 284.093 1142.72 284.093C1139.58 284.093 1137.03 287.031 1137.03 290.655C1137.03 294.278 1139.58 297.216 1142.72 297.216Z" fill="white" stroke="#C2A9ED"/>
</svg>
