<svg width="38" height="41" viewBox="0 0 38 41" fill="none" xmlns="http://www.w3.org/2000/svg">
<path opacity="0.4" d="M19.0135 0C8.07151 0 0.142822 9.7316 0.142822 20.5308C0.142822 23.98 1.06564 27.5318 2.68527 30.7757C2.9866 31.3095 3.02427 31.987 2.8171 32.6234L1.5553 37.2223C1.2728 38.331 2.13912 39.1522 3.0996 38.8237L6.90386 37.5919C7.93967 37.2223 8.74949 37.6945 9.71186 38.331C12.4615 40.0966 15.8872 41 18.9758 41C28.317 41 37.8088 33.1367 37.8088 20.4692C37.8088 9.54682 29.7106 0 19.0135 0Z" fill="black"/>
<path d="M10.2563 17.9236C11.5935 17.9236 12.6669 19.0939 12.6669 20.5515C12.6669 21.9887 11.5935 23.159 10.2563 23.1795C8.93802 23.1795 7.8457 21.9887 7.8457 20.5515C7.8457 19.0939 8.91918 17.9236 10.2563 17.9236ZM18.9391 17.9236C20.2762 17.9236 21.3497 19.0939 21.3497 20.5515C21.3497 21.9887 20.2762 23.1795 18.9391 23.1795C17.6019 23.159 16.5285 21.9887 16.5285 20.531C16.5285 19.0939 17.6208 17.9031 18.9391 17.9236ZM27.6207 17.9236C28.9578 17.9236 30.0313 19.0939 30.0313 20.5515C30.0313 21.9887 28.9578 23.1795 27.6207 23.1795C26.2836 23.1795 25.2101 21.9887 25.2101 20.5515C25.2101 19.0939 26.2836 17.9236 27.6207 17.9236Z" fill="black"/>
</svg>
