<svg width="548" height="364" viewBox="0 0 548 364" fill="none" xmlns="http://www.w3.org/2000/svg">
<path d="M0.829129 28.0529H546.364V356.401C546.364 359.997 543.449 362.913 539.853 362.913H7.34069C3.74445 362.913 0.829129 359.997 0.829129 356.401V28.0529Z" fill="white" stroke="#3C64B1" stroke-width="1.34722"/>
<path opacity="0.1" d="M0.155518 27.3793H547.038V356.401C547.038 360.369 543.821 363.586 539.853 363.586H7.34069C3.37242 363.586 0.155518 360.369 0.155518 356.401V27.3793Z" fill="#3C64B1"/>
<path d="M7.3407 1.15637H539.853C543.449 1.15637 546.364 4.0717 546.364 7.66794V33.4298H0.829129V7.66794C0.829129 4.0717 3.74446 1.15637 7.3407 1.15637Z" fill="white" stroke="#3C64B1" stroke-width="1.34722"/>
<path fill-rule="evenodd" clip-rule="evenodd" d="M45.8008 21.4957C48.179 21.4957 50.107 19.6141 50.107 17.2931C50.107 14.9721 48.179 13.0905 45.8008 13.0905C43.4226 13.0905 41.4946 14.9721 41.4946 17.2931C41.4946 19.6141 43.4226 21.4957 45.8008 21.4957Z" fill="white" stroke="#3C64B1" stroke-width="1.34722"/>
<path fill-rule="evenodd" clip-rule="evenodd" d="M30.2986 21.4957C32.6768 21.4957 34.6048 19.6141 34.6048 17.2931C34.6048 14.9721 32.6768 13.0905 30.2986 13.0905C27.9204 13.0905 25.9924 14.9721 25.9924 17.2931C25.9924 19.6141 27.9204 21.4957 30.2986 21.4957Z" fill="white" stroke="#3C64B1" stroke-width="1.34722"/>
<path fill-rule="evenodd" clip-rule="evenodd" d="M14.7964 21.4957C17.1746 21.4957 19.1026 19.6141 19.1026 17.2931C19.1026 14.9721 17.1746 13.0905 14.7964 13.0905C12.4182 13.0905 10.4902 14.9721 10.4902 17.2931C10.4902 19.6141 12.4182 21.4957 14.7964 21.4957Z" fill="white" stroke="#3C64B1" stroke-width="1.34722"/>
<path d="M39.2527 185.877L91.2572 229.531L143.262 144.582L195.266 132.548L247.271 202.159L299.275 196.496L351.28 131.84L403.284 231.773L455.289 174.079L507.293 227.29" stroke="#C2A9ED"/>
<path d="M39.2526 188.089C40.5494 188.089 41.6006 187.099 41.6006 185.877C41.6006 184.655 40.5494 183.665 39.2526 183.665C37.9558 183.665 36.9045 184.655 36.9045 185.877C36.9045 187.099 37.9558 188.089 39.2526 188.089Z" fill="white" stroke="#C2A9ED"/>
<path d="M91.257 231.744C92.5537 231.744 93.605 230.753 93.605 229.531C93.605 228.31 92.5537 227.319 91.257 227.319C89.9602 227.319 88.9089 228.31 88.9089 229.531C88.9089 230.753 89.9602 231.744 91.257 231.744Z" fill="white" stroke="#C2A9ED"/>
<path d="M143.262 146.795C144.558 146.795 145.61 145.804 145.61 144.582C145.61 143.361 144.558 142.37 143.262 142.37C141.965 142.37 140.914 143.361 140.914 144.582C140.914 145.804 141.965 146.795 143.262 146.795Z" fill="white" stroke="#C2A9ED"/>
<path d="M195.266 134.76C196.563 134.76 197.614 133.77 197.614 132.548C197.614 131.326 196.563 130.336 195.266 130.336C193.969 130.336 192.918 131.326 192.918 132.548C192.918 133.77 193.969 134.76 195.266 134.76Z" fill="white" stroke="#C2A9ED"/>
<path d="M247.271 204.371C248.567 204.371 249.619 203.381 249.619 202.159C249.619 200.937 248.567 199.947 247.271 199.947C245.974 199.947 244.923 200.937 244.923 202.159C244.923 203.381 245.974 204.371 247.271 204.371Z" fill="white" stroke="#C2A9ED"/>
<path d="M299.275 198.708C300.572 198.708 301.623 197.717 301.623 196.496C301.623 195.274 300.572 194.283 299.275 194.283C297.978 194.283 296.927 195.274 296.927 196.496C296.927 197.717 297.978 198.708 299.275 198.708Z" fill="white" stroke="#C2A9ED"/>
<path d="M351.28 134.052C352.576 134.052 353.628 133.062 353.628 131.84C353.628 130.618 352.576 129.628 351.28 129.628C349.983 129.628 348.932 130.618 348.932 131.84C348.932 133.062 349.983 134.052 351.28 134.052Z" fill="white" stroke="#C2A9ED"/>
<path d="M403.284 233.985C404.581 233.985 405.632 232.995 405.632 231.773C405.632 230.551 404.581 229.561 403.284 229.561C401.987 229.561 400.936 230.551 400.936 231.773C400.936 232.995 401.987 233.985 403.284 233.985Z" fill="white" stroke="#C2A9ED"/>
<path d="M455.289 176.291C456.585 176.291 457.637 175.3 457.637 174.079C457.637 172.857 456.585 171.866 455.289 171.866C453.992 171.866 452.941 172.857 452.941 174.079C452.941 175.3 453.992 176.291 455.289 176.291Z" fill="white" stroke="#C2A9ED"/>
<path d="M507.293 229.502C508.59 229.502 509.641 228.512 509.641 227.29C509.641 226.068 508.59 225.078 507.293 225.078C505.996 225.078 504.945 226.068 504.945 227.29C504.945 228.512 505.996 229.502 507.293 229.502Z" fill="white" stroke="#C2A9ED"/>
</svg>
