<svg width="540" height="293" viewBox="0 0 540 293" fill="none" xmlns="http://www.w3.org/2000/svg">
<g clip-path="url(#clip0_6459_704)">
<g clip-path="url(#clip1_6459_704)">
<path opacity="0.1" d="M-356.391 176.166L-389.55 287.632C-390.694 291.479 -387.812 295.343 -383.799 295.343H2590.5C2593.81 295.343 2596.5 292.657 2596.5 289.343V27.5167C2596.5 26.0431 2595.96 24.621 2594.98 23.5216L2560.85 -14.7209C2558.02 -17.8906 2552.88 -17.1973 2551 -13.3911L2516.42 56.3517C2514.81 59.6008 2510.7 60.6892 2507.69 58.6658L2478.13 38.7906C2474.91 36.6252 2470.51 38.0411 2469.16 41.6786L2434.45 135.014C2432.73 139.658 2426.43 140.326 2423.77 136.148L2392.95 87.7965C2390.81 84.4428 2386.06 84.0593 2383.41 87.0266L2352.4 121.774C2349.75 124.741 2345 124.357 2342.87 121.004L2308.87 67.6702C2307.06 64.8276 2303.26 64.0353 2300.46 65.9161L2268.93 87.1134C2266.2 88.9495 2262.5 88.243 2260.64 85.5299L2228.36 38.5179C2225.74 34.6958 2219.96 35.1666 2217.99 39.3628L2183.85 112.041C2182.29 115.369 2178.12 116.521 2175.07 114.469L2144.72 94.0667C2141.81 92.1083 2137.85 93.0577 2136.14 96.1233L2100.43 160.142C2098.91 162.859 2095.57 163.967 2092.73 162.695L2060.76 148.362C2058.11 147.176 2055 148.051 2053.35 150.441L2020.26 198.652C2017.7 202.377 2012.1 202.046 2010 198.045L1976.64 134.507C1974.83 131.045 1970.24 130.219 1967.33 132.828L1935.98 160.929C1933.51 163.144 1929.71 162.933 1927.5 160.457L1894.18 123.13C1891.88 120.55 1887.88 120.445 1885.45 122.9L1853.99 154.623C1851.18 157.458 1846.43 156.808 1844.49 153.321L1809.74 91.0214C1808.12 88.1236 1804.46 87.0879 1801.57 88.7097L1770.03 106.38C1767.32 107.896 1763.91 107.099 1762.15 104.541L1727.79 54.4908C1725.66 51.3882 1721.23 50.9896 1718.58 53.6618L1686.39 86.1321C1684.04 88.4991 1680.21 88.4991 1677.86 86.1321L1646.61 54.6082C1643.67 51.6485 1638.69 52.5093 1636.91 56.2821L1603.45 127.523C1601.48 131.719 1595.7 132.19 1593.07 128.368L1560.54 80.9733C1558.78 78.4154 1555.37 77.6182 1552.66 79.1347L1521.12 96.8047C1518.22 98.4266 1514.56 97.3909 1512.95 94.493L1478.2 32.1937C1476.25 28.7068 1471.51 28.0567 1468.7 30.8917L1437.24 62.6144C1434.81 65.0695 1430.81 64.9643 1428.5 62.3847L1395.19 25.0579C1392.98 22.5817 1389.18 22.37 1386.71 24.5853L1355.36 52.6864C1352.45 55.2959 1347.86 54.469 1346.04 51.0075L1312.69 -12.5306C1310.59 -16.5313 1304.99 -16.8627 1302.43 -13.1375L1269.33 35.0734C1267.69 37.4633 1264.58 38.3385 1261.93 37.1528L1229.95 22.8198C1227.12 21.5476 1223.78 22.6556 1222.26 25.3723L1186.55 89.3912C1184.84 92.4567 1180.88 93.4062 1177.96 91.4477L1147.62 71.0455C1144.57 68.9936 1140.4 70.1452 1138.84 73.4739L1104.7 146.152C1102.73 150.348 1096.95 150.819 1094.32 146.997L1062.05 99.9846C1060.19 97.2714 1056.49 96.5649 1053.76 98.4011L1022.23 119.598C1019.43 121.479 1015.63 120.687 1013.82 117.844L979.822 64.5108C977.684 61.1571 972.934 60.7736 970.286 63.7409L939.276 98.4878C936.628 101.455 931.878 101.072 929.74 97.7179L898.918 49.3669C896.255 45.1889 889.962 45.8569 888.235 50.5009L853.528 143.836C852.176 147.473 847.778 148.889 844.557 146.724L814.994 126.849C811.985 124.825 807.882 125.914 806.271 129.163L771.693 198.906C769.805 202.712 764.669 203.405 761.84 200.235L730.664 165.302C728.278 162.629 724.097 162.629 721.711 165.302L690.074 200.752C687.374 203.777 682.514 203.309 680.441 199.825L647.024 143.658C645.018 140.287 640.37 139.716 637.607 142.502L604.131 176.261C602.52 177.885 600.127 178.453 597.958 177.724L561.838 165.582C560.604 165.167 559.539 164.363 558.803 163.29L522.478 110.376C520.348 107.274 515.921 106.875 513.271 109.548L480.305 142.793C478.278 144.837 475.085 145.153 472.697 143.547L439.998 121.564C437.34 119.777 433.747 120.392 431.836 122.962L397.102 169.666C395.19 172.236 391.598 172.852 388.94 171.065L356.241 149.082C353.852 147.476 350.66 147.792 348.633 149.836L315.667 183.081C313.017 185.753 308.59 185.355 306.46 182.252L270.135 129.339C269.398 128.266 268.333 127.462 267.1 127.047L230.979 114.905C228.811 114.176 226.417 114.743 224.807 116.367L192.583 148.864C189.474 151.999 184.157 150.815 182.672 146.656L149.344 53.2948C147.525 48.1981 140.419 47.925 138.214 52.867L106.53 123.872C104.756 127.848 99.4723 128.67 96.5739 125.423L67.0971 92.3933C64.2684 89.2237 59.1321 89.917 57.245 93.7232L22.6663 163.466C21.0554 166.715 16.9527 167.803 13.9431 165.78L-15.3748 146.069C-18.6713 143.853 -23.1727 145.394 -24.4193 149.166L-59.0627 253.975C-60.7246 259.004 -67.6105 259.57 -70.072 254.881L-101.038 195.894C-102.985 192.185 -108.038 191.563 -110.827 194.688L-141.349 228.888C-143.997 231.855 -148.747 231.472 -150.885 228.118L-184.883 174.784C-186.695 171.942 -190.492 171.15 -193.29 173.03L-224.819 194.228C-227.55 196.064 -231.25 195.357 -233.113 192.644L-266.767 143.622C-269.036 140.316 -273.847 140.124 -276.373 143.237L-309.97 184.648C-311.683 186.759 -314.602 187.455 -317.083 186.343L-348.186 172.402C-351.497 170.918 -355.356 172.689 -356.391 176.166Z" fill="#3C64B1"/>
<path d="M-391.844 295.343L-356.391 176.166C-355.356 172.689 -351.497 170.918 -348.186 172.402L-317.083 186.343C-314.602 187.455 -311.683 186.759 -309.97 184.648L-276.373 143.237C-273.847 140.124 -269.036 140.316 -266.767 143.622L-233.113 192.644C-231.25 195.357 -227.55 196.064 -224.819 194.228L-193.29 173.03C-190.492 171.15 -186.695 171.942 -184.883 174.784L-150.885 228.118C-148.747 231.472 -143.997 231.855 -141.349 228.888L-110.827 194.688C-108.038 191.563 -102.985 192.185 -101.038 195.894L-70.072 254.881C-67.6105 259.57 -60.7246 259.003 -59.0627 253.975L-24.4193 149.166C-23.1727 145.394 -18.6713 143.853 -15.3748 146.069L13.9431 165.78C16.9527 167.803 21.0554 166.715 22.6663 163.466L57.245 93.7232C59.1321 89.917 64.2684 89.2237 67.0971 92.3933L96.5739 125.423C99.4723 128.67 104.756 127.848 106.53 123.872L138.214 52.867C140.419 47.925 147.525 48.1981 149.344 53.2948L182.672 146.656C184.157 150.815 189.474 151.999 192.583 148.864L224.807 116.367C226.417 114.743 228.811 114.176 230.979 114.905L267.1 127.047C268.333 127.462 269.398 128.266 270.135 129.338L306.46 182.252C308.59 185.355 313.017 185.753 315.667 183.081L348.633 149.836C350.66 147.792 353.852 147.476 356.241 149.082L388.94 171.065C391.598 172.852 395.19 172.236 397.102 169.666L431.836 122.962C433.747 120.392 437.34 119.777 439.998 121.564L472.697 143.547C475.085 145.153 478.278 144.837 480.305 142.793L513.271 109.548C515.921 106.875 520.348 107.274 522.478 110.376L558.803 163.29C559.539 164.363 560.604 165.167 561.838 165.582L597.958 177.724C600.127 178.453 602.52 177.885 604.131 176.261L637.607 142.502C640.369 139.716 645.018 140.287 647.024 143.658L680.441 199.825C682.514 203.309 687.374 203.777 690.074 200.752L721.711 165.302C724.097 162.629 728.278 162.629 730.664 165.302L761.84 200.235C764.669 203.405 769.805 202.712 771.692 198.906L806.271 129.163C807.882 125.914 811.985 124.825 814.994 126.849L844.557 146.724C847.778 148.889 852.176 147.473 853.528 143.836L888.235 50.5009C889.962 45.8569 896.255 45.1889 898.918 49.3669L929.74 97.7179C931.878 101.072 936.628 101.455 939.276 98.4878L970.286 63.7409C972.934 60.7736 977.684 61.1571 979.822 64.5108L1013.82 117.844C1015.63 120.687 1019.43 121.479 1022.23 119.598L1053.76 98.4011C1056.49 96.5649 1060.19 97.2714 1062.05 99.9846L1094.32 146.997C1096.95 150.819 1102.73 150.348 1104.7 146.152L1138.84 73.4739C1140.4 70.1452 1144.57 68.9936 1147.62 71.0455L1177.96 91.4477C1180.88 93.4062 1184.84 92.4567 1186.55 89.3912L1222.26 25.3723C1223.78 22.6556 1227.12 21.5476 1229.95 22.8198L1261.93 37.1528C1264.58 38.3385 1267.69 37.4633 1269.33 35.0734L1302.43 -13.1375C1304.99 -16.8627 1310.59 -16.5313 1312.69 -12.5306L1346.04 51.0075C1347.86 54.469 1352.45 55.2959 1355.36 52.6864L1386.71 24.5853C1389.18 22.37 1392.98 22.5817 1395.19 25.0579L1428.5 62.3847C1430.81 64.9643 1434.81 65.0695 1437.24 62.6144L1468.7 30.8917C1471.51 28.0567 1476.25 28.7068 1478.2 32.1937L1512.95 94.493C1514.56 97.3909 1518.22 98.4266 1521.12 96.8047L1552.66 79.1347C1555.37 77.6182 1558.78 78.4154 1560.54 80.9733L1593.07 128.368C1595.7 132.19 1601.48 131.719 1603.45 127.523L1636.91 56.282C1638.69 52.5093 1643.67 51.6485 1646.61 54.6082L1677.86 86.1321C1680.21 88.4991 1684.04 88.4991 1686.39 86.1321L1718.58 53.6618C1721.23 50.9896 1725.66 51.3882 1727.79 54.4908L1762.15 104.541C1763.91 107.099 1767.32 107.896 1770.03 106.38L1801.57 88.7097C1804.46 87.0879 1808.12 88.1236 1809.74 91.0214L1844.49 153.321C1846.43 156.808 1851.18 157.458 1853.99 154.623L1885.45 122.9C1887.88 120.445 1891.88 120.55 1894.18 123.13L1927.5 160.457C1929.71 162.933 1933.51 163.144 1935.98 160.929L1967.33 132.828C1970.24 130.219 1974.83 131.045 1976.64 134.507L2010 198.045C2012.1 202.046 2017.7 202.377 2020.26 198.652L2053.35 150.441C2055 148.051 2058.11 147.176 2060.76 148.362L2092.73 162.695C2095.57 163.967 2098.91 162.859 2100.43 160.142L2136.14 96.1233C2137.85 93.0577 2141.81 92.1083 2144.72 94.0667L2175.07 114.469C2178.12 116.521 2182.29 115.369 2183.85 112.041L2217.99 39.3628C2219.96 35.1666 2225.74 34.6958 2228.36 38.5179L2260.64 85.5299C2262.5 88.2431 2266.2 88.9495 2268.93 87.1134L2300.46 65.9161C2303.26 64.0353 2307.06 64.8276 2308.87 67.6702L2342.87 121.004C2345 124.357 2349.75 124.741 2352.4 121.774L2383.41 87.0266C2386.06 84.0593 2390.81 84.4428 2392.95 87.7965L2423.77 136.148C2426.43 140.326 2432.73 139.658 2434.45 135.014L2469.16 41.6786C2470.51 38.0411 2474.91 36.6252 2478.13 38.7906L2507.69 58.6658C2510.7 60.6892 2514.81 59.6008 2516.42 56.3517L2551 -13.3911C2552.88 -17.1973 2558.02 -17.8906 2560.85 -14.7209L2596.5 25.2287" stroke="#3C64B1"/>
</g>
</g>
<defs>
<clipPath id="clip0_6459_704">
<rect width="540" height="293" fill="white"/>
</clipPath>
<clipPath id="clip1_6459_704">
<rect width="1064" height="326" fill="white" transform="translate(-396 -26)"/>
</clipPath>
</defs>
</svg>
