<svg width="474" height="114" viewBox="0 0 474 114" fill="none" xmlns="http://www.w3.org/2000/svg">
<path d="M3.20972 61.1061L55.1459 107.754L107.082 16.9799L159.018 4.12032L210.955 78.5044L262.891 72.4528L314.827 3.36387L366.763 110.149L418.7 48.4986L470.636 105.358" stroke="#C2A9ED"/>
<path d="M3.20969 63.47C4.50477 63.47 5.55464 62.4116 5.55464 61.1061C5.55464 59.8005 4.50477 58.7422 3.20969 58.7422C1.91461 58.7422 0.864746 59.8005 0.864746 61.1061C0.864746 62.4116 1.91461 63.47 3.20969 63.47Z" fill="white" stroke="#C2A9ED"/>
<path d="M55.146 110.118C56.4411 110.118 57.4909 109.059 57.4909 107.754C57.4909 106.448 56.4411 105.39 55.146 105.39C53.8509 105.39 52.801 106.448 52.801 107.754C52.801 109.059 53.8509 110.118 55.146 110.118Z" fill="white" stroke="#C2A9ED"/>
<path d="M107.082 19.3438C108.377 19.3438 109.427 18.2855 109.427 16.9799C109.427 15.6744 108.377 14.616 107.082 14.616C105.787 14.616 104.737 15.6744 104.737 16.9799C104.737 18.2855 105.787 19.3438 107.082 19.3438Z" fill="white" stroke="#C2A9ED"/>
<path d="M159.018 6.48421C160.313 6.48421 161.363 5.42585 161.363 4.12031C161.363 2.81476 160.313 1.75641 159.018 1.75641C157.723 1.75641 156.673 2.81476 156.673 4.12031C156.673 5.42585 157.723 6.48421 159.018 6.48421Z" fill="white" stroke="#C2A9ED"/>
<path d="M210.955 80.8683C212.25 80.8683 213.3 79.8099 213.3 78.5044C213.3 77.1988 212.25 76.1405 210.955 76.1405C209.659 76.1405 208.61 77.1988 208.61 78.5044C208.61 79.8099 209.659 80.8683 210.955 80.8683Z" fill="white" stroke="#C2A9ED"/>
<path d="M262.891 74.8167C264.186 74.8167 265.236 73.7583 265.236 72.4528C265.236 71.1472 264.186 70.0889 262.891 70.0889C261.596 70.0889 260.546 71.1472 260.546 72.4528C260.546 73.7583 261.596 74.8167 262.891 74.8167Z" fill="white" stroke="#C2A9ED"/>
<path d="M314.827 5.7278C316.122 5.7278 317.172 4.66945 317.172 3.3639C317.172 2.05835 316.122 1 314.827 1C313.532 1 312.482 2.05835 312.482 3.3639C312.482 4.66945 313.532 5.7278 314.827 5.7278Z" fill="white" stroke="#C2A9ED"/>
<path d="M366.763 112.513C368.058 112.513 369.108 111.455 369.108 110.149C369.108 108.844 368.058 107.785 366.763 107.785C365.468 107.785 364.418 108.844 364.418 110.149C364.418 111.455 365.468 112.513 366.763 112.513Z" fill="white" stroke="#C2A9ED"/>
<path d="M418.699 50.8625C419.995 50.8625 421.044 49.8041 421.044 48.4986C421.044 47.193 419.995 46.1347 418.699 46.1347C417.404 46.1347 416.354 47.193 416.354 48.4986C416.354 49.8041 417.404 50.8625 418.699 50.8625Z" fill="white" stroke="#C2A9ED"/>
<path d="M470.636 107.722C471.931 107.722 472.981 106.664 472.981 105.358C472.981 104.053 471.931 102.994 470.636 102.994C469.341 102.994 468.291 104.053 468.291 105.358C468.291 106.664 469.341 107.722 470.636 107.722Z" fill="white" stroke="#C2A9ED"/>
</svg>
