<svg width="430" height="403" viewBox="0 0 430 403" fill="none" xmlns="http://www.w3.org/2000/svg">
<path d="M353.2 9.48737V392.823C353.2 397.807 348.652 401.848 343.044 401.848H10.5023C4.89433 401.848 0.347656 397.807 0.347656 392.823V9.48737C0.347656 4.50235 4.89433 0.461731 10.5023 0.461731H343.044C348.652 0.461731 353.2 4.50235 353.2 9.48737Z" fill="white"/>
<path d="M353.2 36.0262H0.347656V9.31553C0.347656 4.42532 4.80765 0.461693 10.309 0.461693H343.92C349.045 0.461693 353.2 4.15395 353.2 8.70764V36.0262Z" fill="#D7E1F5"/>
<path d="M353.2 9.48746C353.2 9.48746 353.169 9.17819 353.129 8.57031C353.023 7.97073 352.891 7.05481 352.347 5.9469C351.804 4.85202 350.869 3.54858 349.293 2.44305C347.736 1.33633 345.472 0.495026 342.824 0.524658C332.217 0.537689 316.584 0.55661 296.452 0.582672C256.177 0.605194 197.907 0.638397 125.907 0.679871C107.905 0.685791 89.0467 0.692902 69.396 0.700012C59.5707 0.703583 49.548 0.705963 39.3347 0.709503C34.228 0.710693 29.0747 0.711884 23.8747 0.714264C21.2747 0.714264 18.6627 0.715393 16.04 0.715393C14.728 0.715393 13.4133 0.716614 12.096 0.716614C11.9587 0.716614 11.8213 0.716614 11.684 0.716614C10.5 0.714264 9.34533 0.711853 8.22533 0.961884C5.71999 1.47852 3.468 2.92529 2.11466 4.89111C1.43333 5.86984 0.973339 6.97183 0.772005 8.11292C0.570672 9.24454 0.660007 10.4508 0.640007 11.6464C0.64134 16.4288 0.642661 21.2503 0.643994 26.1097C0.646661 35.8309 0.649335 45.7049 0.652002 55.7247C0.657335 75.7654 0.662667 96.3903 0.666667 117.541C0.676 202.145 0.685328 295.158 0.694661 392.789C0.702662 394.266 1.11866 395.732 1.91066 397.025C2.73199 398.299 3.87067 399.431 5.28667 400.195C6.684 400.981 8.30401 401.45 9.95601 401.515C11.0333 401.547 12.14 401.544 13.2467 401.54C13.852 401.538 14.4587 401.536 15.06 401.54C21.8867 401.54 28.692 401.54 35.4747 401.54C49.0413 401.541 62.5173 401.541 75.8947 401.541C102.652 401.542 129.016 401.545 154.921 401.546C206.731 401.551 256.707 401.557 304.313 401.563C316.215 401.566 327.968 401.568 339.565 401.57C340.075 401.565 340.589 401.567 341.104 401.57C342.043 401.575 342.981 401.581 343.88 401.533C345.276 401.433 346.645 401.066 347.857 400.45C350.295 399.235 352.093 397.075 352.669 394.661C352.987 393.466 352.867 392.202 352.891 390.926C352.892 389.661 352.892 388.396 352.892 387.135C352.893 384.611 352.893 382.096 352.895 379.591C352.9 359.549 352.905 340.092 352.912 321.28C352.927 283.655 352.941 248.608 352.953 216.613C353 152.626 353.039 100.847 353.064 65.0584C353.093 47.1695 353.115 33.2785 353.129 23.8536C353.144 19.1482 353.156 15.5567 353.164 13.1382C353.176 10.7245 353.2 9.48746 353.2 9.48746C353.2 9.48746 353.223 10.7245 353.235 13.1382C353.243 15.5567 353.255 19.1482 353.269 23.8536C353.284 33.2785 353.307 47.1695 353.335 65.0584C353.36 100.847 353.399 152.626 353.445 216.613C353.457 248.608 353.472 283.655 353.487 321.28C353.493 340.092 353.499 359.549 353.505 379.591C353.505 382.096 353.505 384.611 353.507 387.135C353.507 388.396 353.507 389.661 353.508 390.926C353.483 392.177 353.611 393.479 353.273 394.776C352.663 397.344 350.753 399.639 348.163 400.932C346.873 401.587 345.416 401.98 343.932 402.086C342.968 402.137 342.039 402.131 341.108 402.126C340.596 402.123 340.084 402.12 339.565 402.126C327.968 402.129 316.215 402.13 304.313 402.132C256.707 402.138 206.731 402.144 154.921 402.15C129.016 402.152 102.652 402.154 75.8947 402.155C62.5173 402.156 49.0413 402.156 35.4747 402.156C28.692 402.156 21.8867 402.156 15.06 402.157C14.4493 402.152 13.844 402.155 13.2373 402.156C12.14 402.161 11.0427 402.164 9.91733 402.131C8.14933 402.061 6.41333 401.557 4.91733 400.717C3.40133 399.898 2.18 398.688 1.30267 397.324C0.453336 395.941 0.00666667 394.364 0 392.789C0.00933333 295.158 0.0186615 202.145 0.0279948 117.541C0.0319948 96.3903 0.0373262 75.7654 0.0426595 55.7247C0.0453262 45.7049 0.0480007 35.8309 0.0506673 26.1097C0.0520007 21.2503 0.0533379 16.4288 0.0546712 11.6464C0.0773379 10.4543 -0.0173372 9.25876 0.195996 8.03235C0.409329 6.82373 0.89867 5.65656 1.62 4.61975C3.056 2.54019 5.43866 1.01044 8.09199 0.464172C9.27866 0.199951 10.5027 0.203552 11.676 0.205902C11.8173 0.207092 11.9573 0.207062 12.096 0.207062C13.4133 0.208252 14.728 0.208282 16.04 0.208282C18.6627 0.209473 21.2747 0.209473 23.8747 0.210663C29.0747 0.211853 34.228 0.213013 39.3347 0.214172C49.548 0.217743 59.5707 0.221313 69.396 0.223663C89.0467 0.230774 107.905 0.237885 125.907 0.243805C197.907 0.285278 256.177 0.318451 296.452 0.342163C316.584 0.367035 332.217 0.385986 342.824 0.400208C345.503 0.380066 347.793 1.24271 349.36 2.36838C350.945 3.49524 351.876 4.81525 352.412 5.92081C352.948 7.04175 353.069 7.96481 353.165 8.56677C353.193 9.17819 353.2 9.48746 353.2 9.48746Z" fill="#17282F"/>
<path d="M125.992 65.6342L127.771 62.0545C129.316 62.8662 131.378 63.3864 133.18 63.3864C134.75 63.3864 135.311 63.0961 135.311 62.596C135.311 60.7641 126.25 62.2418 126.25 56.81C126.25 54.1048 128.802 51.8985 133.883 51.8985C136.084 51.8985 138.356 52.3156 140.066 53.1687L138.403 56.7271C136.787 55.9983 135.264 55.6452 133.836 55.6452C132.22 55.6452 131.706 56.0611 131.706 56.56C131.706 58.309 140.768 56.8515 140.768 62.2216C140.768 64.8853 138.215 67.132 133.134 67.132C130.394 67.132 127.631 66.5288 125.992 65.6342Z" fill="#17282F"/>
<path d="M142.27 60.244V52.2326H147.796V60.0982C147.796 62.3259 148.756 63.1577 150.302 63.1577C151.847 63.1577 152.807 62.3259 152.807 60.0982V52.2326H158.24V60.244C158.24 64.614 155.29 67.132 150.255 67.132C145.22 67.132 142.27 64.614 142.27 60.244Z" fill="#17282F"/>
<path d="M168.315 56.0197H166.302V59.4323H168.315C169.838 59.4323 170.563 58.7877 170.563 57.726C170.563 56.6643 169.838 56.0197 168.315 56.0197ZM167.801 63.1364H166.302V66.8002H160.775V52.2326H168.667C173.233 52.2326 176.137 54.3549 176.137 57.726C176.137 59.8281 175.013 61.4099 173.046 62.3045L176.487 66.8002H170.587L167.801 63.1364Z" fill="#17282F"/>
<path d="M195.742 52.2326L188.811 66.8002H183.378L176.447 52.2326H182.395L186.306 60.744L190.31 52.2326H195.742Z" fill="#17282F"/>
<path d="M209.916 63.0961V66.8002H196.287V52.2326H209.611V55.9367H201.719V57.643H208.651V61.18H201.719V63.0961H209.916Z" fill="#17282F"/>
<path d="M221.676 61.5142V66.8002H216.148V61.4514L209.967 52.2326H215.799L219.145 57.2686L222.519 52.2326H227.857L221.676 61.5142Z" fill="#17282F"/>
<path d="M98.0604 188.007H65.051C62.2057 188.007 59.9004 185.957 59.9004 183.429V154.094C59.9004 151.567 62.2057 149.517 65.051 149.517H98.0604C100.904 149.517 103.21 151.567 103.21 154.094V183.429C103.21 185.957 100.904 188.007 98.0604 188.007Z" fill="#8AA5DC"/>
<path d="M80.9328 177.931L68.8008 169.599L72.0728 165.837L80.2088 171.424L91.7781 159.592L95.8168 162.711L80.9328 177.931Z" fill="white"/>
<path d="M280.615 113.343H126.312V104.174H280.615V113.343Z" fill="#DADBD8"/>
<path d="M98.0604 128.004H65.051C62.2057 128.004 59.9004 125.954 59.9004 123.427V94.0915C59.9004 91.5629 62.2057 89.5142 65.051 89.5142H98.0604C100.904 89.5142 103.21 91.5629 103.21 94.0915V123.427C103.21 125.954 100.904 128.004 98.0604 128.004Z" fill="#DADBD8"/>
<path d="M249.844 175.396H126.312V166.227H249.844V175.396Z" fill="#89A5DC"/>
<path d="M98.0604 250.66H65.051C62.2057 250.66 59.9004 248.611 59.9004 246.083V216.747C59.9004 214.22 62.2057 212.171 65.051 212.171H98.0604C100.904 212.171 103.21 214.22 103.21 216.747V246.083C103.21 248.611 100.904 250.66 98.0604 250.66Z" fill="#DADBD8"/>
<path d="M262.936 237.448H126.312V228.279H262.936V237.448Z" fill="#DADBD8"/>
<path d="M98.0604 312.713H65.051C62.2057 312.713 59.9004 310.664 59.9004 308.135V278.8C59.9004 276.272 62.2057 274.222 65.051 274.222H98.0604C100.904 274.222 103.21 276.272 103.21 278.8V308.135C103.21 310.664 100.904 312.713 98.0604 312.713Z" fill="#DADBD8"/>
<path d="M98.0604 371.345H65.051C62.2057 371.345 59.9004 369.297 59.9004 366.768V337.432C59.9004 334.905 62.2057 332.856 65.051 332.856H98.0604C100.904 332.856 103.21 334.905 103.21 337.432V366.768C103.21 369.297 100.904 371.345 98.0604 371.345Z" fill="#DADBD8"/>
<path d="M126.312 299.501H209.553V290.332H126.312V299.501Z" fill="#DADBD8"/>
<path d="M280.615 357.474H126.312V348.305H280.615V357.474Z" fill="#DADBD8"/>
<path d="M27.0639 17.2913C27.0639 20.4076 24.2213 22.9339 20.7146 22.9339C17.2079 22.9339 14.3652 20.4076 14.3652 17.2913C14.3652 14.1749 17.2079 11.6486 20.7146 11.6486C24.2213 11.6486 27.0639 14.1749 27.0639 17.2913Z" fill="white"/>
<path d="M44.2065 17.2913C44.2065 20.4076 41.3638 22.9339 37.8571 22.9339C34.3505 22.9339 31.5078 20.4076 31.5078 17.2913C31.5078 14.1749 34.3505 11.6486 37.8571 11.6486C41.3638 11.6486 44.2065 14.1749 44.2065 17.2913Z" fill="white"/>
<path d="M61.3491 17.2913C61.3491 20.4076 58.5064 22.9339 54.9997 22.9339C51.4931 22.9339 48.6504 20.4076 48.6504 17.2913C48.6504 14.1749 51.4931 11.6486 54.9997 11.6486C58.5064 11.6486 61.3491 14.1749 61.3491 17.2913Z" fill="white"/>
<path d="M423.924 311.101H396.441V246.234H423.924C426.763 246.234 429.064 248.279 429.064 250.802V306.532C429.064 309.056 426.763 311.101 423.924 311.101Z" fill="#A7A9A8"/>
<path d="M369.938 311.101H396.44V246.234H369.938V311.101Z" fill="#8F9192"/>
<path d="M369.938 311.101H353.482C353.473 288.472 353.465 266.812 353.457 246.234H369.938V311.101Z" fill="#5D6163"/>
<path d="M352.915 311.101H197.051C194.211 311.101 191.91 309.056 191.91 306.532V299.5H209.553V290.331H191.91V250.802C191.91 248.279 194.211 246.234 197.051 246.234H352.941C352.933 266.812 352.925 288.472 352.915 311.101Z" fill="#A7A9A8"/>
<path d="M353.483 311.101H352.916C352.925 288.472 352.933 266.812 352.941 246.234H353.457C353.465 266.812 353.473 288.472 353.483 311.101Z" fill="#0F191D"/>
<path d="M191.91 299.501H209.553V290.332H191.91V299.501Z" fill="#8F9192"/>
<path d="M414.986 299.865H188.114C185.274 299.865 182.973 297.82 182.973 295.298V239.568C182.973 237.045 185.274 235 188.114 235H414.986C417.825 235 420.126 237.045 420.126 239.568V295.298C420.126 297.82 417.825 299.865 414.986 299.865Z" fill="white"/>
<path d="M414.987 299.866C414.982 299.835 415.535 299.89 416.53 299.621C417.483 299.349 418.991 298.594 419.724 296.893C420.13 296.057 420.038 295.032 420.04 293.917C420.035 292.8 420.03 291.578 420.024 290.256C420.015 287.607 420.004 284.554 419.992 281.119C419.976 274.24 419.956 265.83 419.932 256.068C419.924 251.185 419.915 245.963 419.906 240.427C419.903 239.726 419.936 239.049 419.72 238.404C419.526 237.755 419.146 237.148 418.63 236.646C417.603 235.609 416.034 235.105 414.416 235.207C411.126 235.211 407.751 235.214 404.294 235.218C348.956 235.242 272.536 235.273 188.128 235.308C186.894 235.305 185.675 235.739 184.794 236.501C183.904 237.255 183.368 238.319 183.331 239.407C183.327 241.734 183.324 244.053 183.32 246.366C183.32 250.997 183.32 255.598 183.319 260.166C183.318 269.301 183.316 278.302 183.314 287.146C183.314 289.358 183.312 291.559 183.312 293.75C183.34 294.862 183.184 295.943 183.655 296.877C184.079 297.824 184.898 298.623 185.911 299.088C186.416 299.323 186.968 299.478 187.535 299.534C188.084 299.586 188.715 299.562 189.319 299.568C190.534 299.568 191.746 299.568 192.955 299.569C195.374 299.569 197.779 299.57 200.174 299.572C209.747 299.575 219.12 299.578 228.264 299.581C264.842 299.606 297.78 299.629 325.447 299.648C353.1 299.689 375.48 299.722 390.963 299.746C398.688 299.771 404.69 299.791 408.776 299.804C410.803 299.817 412.351 299.828 413.408 299.835C414.452 299.844 414.987 299.866 414.987 299.866C414.987 299.866 414.452 299.887 413.408 299.898C412.351 299.905 410.803 299.914 408.776 299.928C404.69 299.941 398.688 299.96 390.963 299.986C375.48 300.009 353.1 300.042 325.447 300.084C297.78 300.103 264.842 300.125 228.264 300.15C219.12 300.153 209.747 300.157 200.174 300.161C197.779 300.161 195.374 300.162 192.955 300.163C191.746 300.163 190.534 300.163 189.319 300.164C188.708 300.157 188.118 300.185 187.455 300.126C186.81 300.062 186.178 299.887 185.602 299.619C184.446 299.088 183.514 298.179 183.028 297.099C182.783 296.561 182.65 295.98 182.642 295.398L182.636 293.75C182.635 291.559 182.635 289.358 182.634 287.146C182.632 278.302 182.631 269.301 182.628 260.166C182.628 255.598 182.628 250.997 182.627 246.366C182.631 244.046 182.634 241.719 182.638 239.384C182.679 238.14 183.295 236.918 184.312 236.057C185.319 235.186 186.72 234.686 188.128 234.691C272.536 234.726 348.956 234.758 404.294 234.782C407.751 234.786 411.126 234.789 414.416 234.793C416.078 234.684 417.874 235.241 418.967 236.376C419.53 236.926 419.942 237.589 420.152 238.298C420.386 239.01 420.347 239.749 420.348 240.427C420.339 245.963 420.33 251.185 420.322 256.068C420.298 265.83 420.278 274.24 420.262 281.119C420.25 284.554 420.239 287.607 420.23 290.256C420.224 291.578 420.219 292.8 420.214 293.917C420.2 295.02 420.283 296.079 419.855 296.936C419.079 298.678 417.523 299.425 416.552 299.682C415.535 299.934 414.987 299.866 414.987 299.866Z" fill="#17282F"/>
<path d="M299.234 253.971L295.888 259.997C295.51 260.675 294.784 261.145 293.941 261.253L286.457 262.22C284.338 262.494 283.492 264.808 285.025 266.138L290.441 270.829C291.049 271.356 291.328 272.117 291.184 272.861L289.905 279.485C289.544 281.362 291.76 282.792 293.656 281.907L300.349 278.778C301.101 278.427 302.001 278.427 302.754 278.778L309.448 281.907C311.344 282.792 313.558 281.362 313.197 279.485L311.918 272.861C311.774 272.117 312.053 271.356 312.662 270.829L318.077 266.138C319.61 264.808 318.765 262.494 316.645 262.22L309.161 261.253C308.32 261.145 307.592 260.675 307.216 259.997L303.869 253.971C302.921 252.263 300.182 252.263 299.234 253.971Z" fill="#89A5DC"/>
<path d="M342.335 253.971L338.989 259.997C338.613 260.675 337.885 261.145 337.043 261.253L329.559 262.22C327.439 262.494 326.593 264.808 328.128 266.138L333.542 270.829C334.152 271.356 334.429 272.117 334.286 272.861L333.007 279.485C332.645 281.362 334.861 282.792 336.757 281.907L343.45 278.778C344.204 278.427 345.102 278.427 345.856 278.778L352.549 281.907C354.445 282.792 356.661 281.362 356.298 279.485L355.021 272.861C354.877 272.117 355.154 271.356 355.764 270.829L361.178 266.138C362.713 264.808 361.866 262.494 359.746 262.22L352.264 261.253C351.421 261.145 350.694 260.675 350.317 259.997L346.97 253.971C346.022 252.263 343.283 252.263 342.335 253.971Z" fill="#89A5DC"/>
<path d="M385.438 253.971L382.091 259.997C381.715 260.675 380.987 261.145 380.146 261.253L372.662 262.22C370.543 262.494 369.697 264.808 371.23 266.138L376.646 270.829C377.254 271.356 377.533 272.117 377.389 272.861L376.11 279.485C375.749 281.362 377.963 282.792 379.859 281.907L386.554 278.778C387.306 278.427 388.206 278.427 388.958 278.778L395.653 281.907C397.547 282.792 399.763 281.362 399.402 279.485L398.123 272.861C397.979 272.117 398.258 271.356 398.866 270.829L404.282 266.138C405.815 264.808 404.97 262.494 402.85 262.22L395.366 261.253C394.525 261.145 393.797 260.675 393.421 259.997L390.074 253.971C389.126 252.263 386.386 252.263 385.438 253.971Z" fill="#89A5DC"/>
<path d="M256.128 253.971L252.782 259.997C252.406 260.675 251.678 261.145 250.837 261.253L243.352 262.22C241.232 262.494 240.386 264.808 241.92 266.138L247.335 270.829C247.945 271.356 248.223 272.117 248.079 272.861L246.801 279.485C246.438 281.362 248.654 282.792 250.55 281.907L257.243 278.778C257.997 278.427 258.896 278.427 259.648 278.778L266.342 281.907C268.238 282.792 270.454 281.362 270.091 279.485L268.814 272.861C268.67 272.117 268.947 271.356 269.556 270.829L274.973 266.138C276.506 264.808 275.659 262.494 273.539 262.22L266.056 261.253C265.214 261.145 264.487 260.675 264.11 259.997L260.763 253.971C259.815 252.263 257.076 252.263 256.128 253.971Z" fill="#89A5DC"/>
<path d="M213.027 253.971L209.681 259.997C209.303 260.675 208.577 261.145 207.734 261.253L200.251 262.22C198.131 262.494 197.285 264.808 198.818 266.138L204.234 270.829C204.843 271.356 205.121 272.117 204.977 272.861L203.698 279.485C203.337 281.362 205.553 282.792 207.449 281.907L214.142 278.778C214.894 278.427 215.794 278.427 216.547 278.778L223.241 281.907C225.137 282.792 227.353 281.362 226.99 279.485L225.711 272.861C225.569 272.117 225.846 271.356 226.455 270.829L231.87 266.138C233.405 264.808 232.558 262.494 230.438 262.22L222.954 261.253C222.113 261.145 221.385 260.675 221.009 259.997L217.662 253.971C216.714 252.263 213.975 252.263 213.027 253.971Z" fill="#89A5DC"/>
</svg>
